<?xml version="1.0" encoding="utf-8"?>
<!-- Generator: Adobe Illustrator 28.2.0, SVG Export Plug-In . SVG Version: 6.00 Build 0)  -->
<svg version="1.1" id="Layer_1" xmlns="http://www.w3.org/2000/svg" xmlns:xlink="http://www.w3.org/1999/xlink" x="0px" y="0px"
	 viewBox="0 0 800 280" style="enable-background:new 0 0 800 280;" xml:space="preserve">
<style type="text/css">
	.st0{fill-rule:evenodd;clip-rule:evenodd;fill:#4F76E1;}
	.st1{fill-rule:evenodd;clip-rule:evenodd;fill:#1A2A45;}
	.st2{fill-rule:evenodd;clip-rule:evenodd;fill:#76CDEA;}
	.st3{fill:#1A2A45;}
</style>
<g>
	<g>
		<path class="st0" d="M79.5,86.8c12.2-12.2,18.4-28.1,19-44.1c0.3-8.2,6.8-10.1,11.9-11.2c4.2-0.9,8.5-1.5,12.8-1.9
			c3.4,26.7-5.2,54.5-25.7,75.1c-2.6,2.6-5.2,4.9-8,7.2c-2.5-8.5-6.1-16.7-10.6-24.2C78.9,87.3,79.2,87,79.5,86.8L79.5,86.8
			L79.5,86.8z M46,130.2c-7.8,1-15.8,1.1-23.6,0.1c0.4-4.3,0.9-8.6,1.9-12.8c1.1-4.9,2.9-11.2,10.4-11.8
			C40.4,113,44.3,121.3,46,130.2L46,130.2z"/>
		<path class="st1" d="M132.7,64.8c17.3,0,32.8-6.9,44.6-17.7c6.1-5.6,11.9-2.3,16.3,0.5c3.6,2.3,7,4.9,10.4,7.6
			C187.5,76.4,161.8,90,132.7,90c-3.6,0-7.3-0.2-10.7-0.7c4.3-7.7,7.5-16,9.6-24.7C132,64.8,132.3,64.8,132.7,64.8L132.7,64.8
			L132.7,64.8z M78.2,71.7C71.9,67,66.3,61.4,61.5,55.1c3.3-2.8,6.7-5.4,10.3-7.6c4.3-2.7,10-5.9,15.8-0.9
			C86.5,55.6,83.5,64.3,78.2,71.7L78.2,71.7L78.2,71.7z"/>
		<path class="st2" d="M185.9,86.8C198.1,99,214,105.2,230,105.7c8.2,0.3,10.1,6.8,11.3,11.9c0.9,4.2,1.5,8.5,1.9,12.8
			c-26.7,3.4-54.5-5.2-75.1-25.7c-2.6-2.6-4.9-5.2-7.2-8c8.5-2.5,16.7-6.1,24.2-10.6C185.5,86.2,185.8,86.5,185.9,86.8L185.9,86.8
			L185.9,86.8z M142.6,53.3c-1-7.8-1.1-15.8-0.1-23.6c4.3,0.4,8.6,0.9,12.7,1.9c4.9,1.1,11.2,2.9,11.8,10.4
			C159.8,47.7,151.5,51.6,142.6,53.3L142.6,53.3z"/>
		<path class="st1" d="M207.9,140c0,17.3,6.9,32.8,17.7,44.6c5.6,6.1,2.3,11.9-0.5,16.3c-2.2,3.6-4.9,7-7.6,10.4
			c-21.3-16.5-34.9-42.2-34.9-71.2c0-3.6,0.2-7.3,0.7-10.7c7.7,4.3,16,7.5,24.7,9.6C207.9,139.3,207.9,139.6,207.9,140L207.9,140
			L207.9,140z M201,85.5c4.8-6.3,10.4-11.9,16.6-16.8c2.8,3.3,5.4,6.6,7.6,10.3c2.7,4.3,5.9,10,0.9,15.8
			C217.1,93.8,208.5,90.7,201,85.5L201,85.5L201,85.5z"/>
		<path class="st0" d="M185.9,193.2c-12.2,12.2-18.4,28.1-19,44.1c-0.3,8.2-6.8,10.1-11.9,11.2c-4.2,0.9-8.5,1.5-12.7,1.9
			c-3.4-26.7,5.2-54.5,25.7-75.1c2.6-2.6,5.2-4.9,8-7.2c2.5,8.5,6.1,16.7,10.6,24.2C186.5,192.7,186.3,193,185.9,193.2L185.9,193.2
			L185.9,193.2z M219.5,149.8c7.8-1,15.8-1.1,23.6-0.1c-0.4,4.3-0.9,8.6-1.9,12.7c-1.1,4.9-2.9,11.2-10.4,11.8
			C225,167,221.1,158.7,219.5,149.8L219.5,149.8z"/>
		<path class="st1" d="M132.7,215.2c-17.3,0-32.8,6.9-44.6,17.7c-6.1,5.6-11.9,2.3-16.3-0.5c-3.6-2.2-7-4.9-10.3-7.6
			c16.6-21.2,42.3-34.8,71.3-34.8c3.6,0,7.3,0.2,10.7,0.7c-4.3,7.7-7.5,16-9.6,24.7C133.5,215.2,133.1,215.2,132.7,215.2
			L132.7,215.2L132.7,215.2z M187.3,208.3c6.3,4.8,11.9,10.4,16.8,16.6c-3.3,2.8-6.6,5.4-10.4,7.6c-4.3,2.7-10,5.9-15.8,0.9
			C178.9,224.4,182,215.7,187.3,208.3L187.3,208.3z"/>
		<path class="st2" d="M79.5,193.2c-12.2-12.2-28.1-18.4-44.1-19c-8.2-0.3-10.1-6.8-11.3-11.9c-0.9-4.2-1.5-8.5-1.9-12.7
			c26.7-3.4,54.5,5.2,75.1,25.7c2.6,2.6,4.9,5.2,7.2,8c-8.5,2.5-16.7,6.1-24.2,10.6C80,193.8,79.7,193.5,79.5,193.2L79.5,193.2
			L79.5,193.2z M122.9,226.7c1.1,7.8,1.1,15.8,0.2,23.6c-4.3-0.4-8.6-0.9-12.8-1.9c-4.9-1.1-11.2-2.9-11.8-10.4
			C105.7,232.3,114,228.4,122.9,226.7L122.9,226.7z"/>
		<path class="st1" d="M57.4,140c0-17.3-6.9-32.8-17.7-44.6c-5.6-6.1-2.3-11.9,0.5-16.3c2.3-3.6,4.9-7,7.6-10.3
			C69.1,85.3,82.7,111,82.7,140c0,3.6-0.2,7.3-0.7,10.7c-7.7-4.3-16-7.5-24.7-9.6C57.4,140.7,57.4,140.4,57.4,140L57.4,140L57.4,140
			z M64.4,194.5c-4.8,6.3-10.4,11.9-16.6,16.8c-2.8-3.3-5.4-6.6-7.6-10.4c-2.7-4.3-5.9-10-0.9-15.8C48.3,186.2,57,189.3,64.4,194.5
			L64.4,194.5L64.4,194.5z"/>
		<path class="st3" d="M389.5,128.7h-18l-47.3-65.9v65.9h-15.9V38.1h18l47.3,66v-66h15.9V128.7L389.5,128.7z"/>
		<path class="st3" d="M421.6,128.7h-15.9V38.1h15.9V128.7L421.6,128.7z"/>
		<path class="st3" d="M437.6,128.7V38.1h29.9c7.6,0,14.1,1.2,19.6,3.6c5.5,2.4,9.6,5.9,12.6,10.4c2.9,4.5,4.4,9.8,4.4,16
			s-1.5,11.5-4.4,16s-7.1,8-12.6,10.4c-5.4,2.4-11.9,3.6-19.5,3.6h-14.2v30.6H437.6L437.6,128.7z M453.6,84.1h12.5
			c7,0,12.3-1.4,16-4.3s5.6-6.8,5.6-11.8s-1.9-9-5.7-11.7s-9.1-4.2-16-4.2h-12.5L453.6,84.1L453.6,84.1z"/>
		<path class="st3" d="M374.9,170.6c-2.9-2.9-6.2-5-10.3-6.6c-4-1.5-8.2-2.3-12.7-2.3s-8.7,0.7-12.5,2.3s-7,3.8-9.8,6.7
			c-2.7,2.9-4.8,6.4-6.3,10.4s-2.2,8.5-2.2,13.3s0.7,9.4,2.2,13.5s3.6,7.6,6.4,10.6s6.1,5.3,9.8,6.9c3.7,1.6,7.9,2.4,12.5,2.4
			c3.9,0,7.6-0.7,10.9-1.9s6.2-3,8.8-5.3s4.6-5.1,6.2-8.4c1.6-3.3,2.7-6.9,3.2-10.9h-28.6V189h42.7l0.5,6.1c0,6.9-1,13.1-3.2,18.8
			c-2.1,5.7-5.1,10.6-9,14.8s-8.6,7.4-13.9,9.6s-11.3,3.4-17.7,3.4s-12.9-1.2-18.6-3.5c-5.7-2.4-10.7-5.7-14.9-10
			c-4.2-4.3-7.6-9.2-9.9-14.9s-3.5-11.9-3.5-18.6c0-6.7,1.2-12.9,3.5-18.6s5.6-10.7,9.9-15s9.1-7.6,14.8-10
			c5.7-2.3,11.8-3.5,18.6-3.5c6.7,0,12.4,1.1,18.2,3.3c5.8,2.1,10.9,5.3,15.5,9.4L374.9,170.6L374.9,170.6z"/>
		<path class="st3" d="M481.4,240.1h-17.7L443.9,206h-19.7v34.1h-16v-90.6h36c7.1,0,13.1,1.1,18.1,3.4c5,2.2,8.9,5.5,11.6,9.7
			s4,9.2,4,15.2c0,6.2-1.6,11.7-4.7,15.9c-3.1,4.4-7.5,7.6-13.1,9.6L481.4,240.1L481.4,240.1z M424.2,193H443
			c5.9,0,10.4-1.3,13.6-3.8c3.3-2.6,4.8-6.2,4.8-10.9s-1.6-8.3-4.8-10.9s-7.7-3.8-13.6-3.8h-18.8V193L424.2,193z"/>
		<path class="st3" d="M535.4,241.9c-6.8,0-13.1-1.1-18.9-3.5c-5.8-2.3-10.8-5.6-15.1-9.9c-4.3-4.3-7.6-9.2-10-15
			c-2.3-5.8-3.5-12-3.5-18.7s1.2-13.1,3.5-18.8s5.7-10.7,10-14.9c4.3-4.3,9.3-7.6,15.1-9.9c5.8-2.3,12.1-3.5,19-3.5
			s13.1,1.1,18.9,3.5c5.8,2.4,10.8,5.6,15,9.9c4.3,4.3,7.6,9.2,9.9,14.9c2.3,5.7,3.5,12,3.5,18.8s-1.1,13.1-3.5,18.7
			c-2.3,5.8-5.6,10.7-9.9,15c-4.3,4.3-9.3,7.6-15,9.9C548.7,240.8,542.2,241.9,535.4,241.9L535.4,241.9z M535.4,227.9
			c4.5,0,8.6-0.8,12.4-2.5s7.1-4,9.9-7c2.8-3,4.9-6.5,6.5-10.5s2.3-8.4,2.3-13.1s-0.7-9-2.3-13.1c-1.6-4-3.7-7.6-6.5-10.5
			c-2.8-3-6.1-5.3-9.9-7s-7.9-2.5-12.4-2.5s-8.6,0.8-12.3,2.5s-7.1,4-9.9,7c-2.8,3-4.9,6.5-6.5,10.5s-2.3,8.4-2.3,13.1
			s0.7,9,2.3,13.1c1.6,4,3.7,7.6,6.5,10.5c2.8,3,6.1,5.3,9.9,7C526.9,227.1,531.1,227.9,535.4,227.9z"/>
		<path class="st3" d="M673.6,149.4v50c0,8.8-1.6,16.3-4.7,22.8c-3.1,6.3-7.6,11.3-13.4,14.6c-5.9,3.4-12.9,5.1-21,5.1
			s-15.1-1.7-20.9-5.1c-5.9-3.4-10.4-8.3-13.4-14.6c-3.1-6.3-4.7-13.9-4.7-22.8v-50h15.9v48.2c0,6.5,0.9,12.1,2.6,16.6
			c1.8,4.5,4.4,7.9,7.8,10.2c3.5,2.3,7.6,3.5,12.6,3.5c4.9,0,9.2-1.1,12.7-3.5c3.5-2.3,6.1-5.7,7.8-10.2c1.8-4.5,2.6-10.1,2.6-16.6
			v-48.2H673.6z"/>
		<path class="st3" d="M688.4,240.1v-90.6h30c7.6,0,14.1,1.2,19.6,3.6c5.4,2.4,9.6,5.9,12.6,10.4c2.9,4.5,4.4,9.8,4.4,16
			s-1.5,11.5-4.4,16c-2.9,4.6-7.1,8-12.6,10.4c-5.4,2.4-11.9,3.6-19.5,3.6h-14.2v30.6H688.4L688.4,240.1z M704.4,195.6h12.5
			c7,0,12.3-1.4,16-4.3c3.7-2.9,5.6-6.8,5.6-11.8s-1.9-9-5.7-11.7s-9.1-4.2-16-4.2h-12.5L704.4,195.6L704.4,195.6z"/>
	</g>
	<path class="st3" d="M764.5,146c-2.6,0-4.8-0.6-6.8-1.7c-2-1.1-3.6-2.7-4.7-4.7c-1.1-2-1.7-4.3-1.7-6.8s0.6-4.8,1.7-6.8
		c1.1-2,2.7-3.6,4.7-4.7c2-1.1,4.3-1.7,6.8-1.7s4.8,0.6,6.8,1.7c2,1.1,3.6,2.7,4.7,4.7c1.1,2,1.7,4.2,1.7,6.8s-0.6,4.8-1.7,6.8
		c-1.1,2-2.7,3.6-4.7,4.7C769.4,145.5,767.1,146,764.5,146z M764.5,143.6c2,0,3.9-0.5,5.5-1.4c1.6-0.9,2.9-2.2,3.8-3.9
		c0.9-1.7,1.4-3.5,1.4-5.5c0-2-0.5-3.9-1.4-5.6c-0.9-1.7-2.2-3-3.8-3.9c-1.6-0.9-3.5-1.4-5.5-1.4s-3.9,0.5-5.5,1.4
		c-1.7,0.9-2.9,2.2-3.9,3.9s-1.4,3.5-1.4,5.6c0,2.1,0.5,3.9,1.4,5.5c0.9,1.7,2.2,2.9,3.9,3.9C760.6,143.2,762.5,143.6,764.5,143.6
		L764.5,143.6z M770.3,139.8h-2.8l-3-5.8h-2.3v5.8h-2.4v-14.2h4.8c1.6,0,2.9,0.4,3.8,1.1s1.4,1.8,1.4,3.1c0,0.9-0.2,1.7-0.7,2.4
		c-0.5,0.7-1.1,1.1-2,1.4L770.3,139.8L770.3,139.8z M762.2,131.8h2c1.1,0,1.8-0.2,2.3-0.5c0.5-0.3,0.8-0.8,0.8-1.6s-0.2-1.2-0.8-1.5
		c-0.5-0.3-1.3-0.5-2.3-0.5h-2V131.8L762.2,131.8z"/>
</g>
</svg>
